<svg width="41" height="41" viewBox="0 0 41 41" fill="none" xmlns="http://www.w3.org/2000/svg">
<path d="M20.082 0.0693359C9.08202 0.0693359 0.0820312 9.0854 0.0820312 20.1898C0.0820312 30.23 7.40202 38.5633 16.962 40.0693V26.0131H11.882V20.1898H16.962V15.7521C16.962 10.7119 19.942 7.94082 24.522 7.94082C26.702 7.94082 28.982 8.32235 28.982 8.32235V13.2822H26.462C23.982 13.2822 23.202 14.8284 23.202 16.4147V20.1898H28.762L27.862 26.0131H23.202V40.0693C27.9149 39.322 32.2064 36.9077 35.3018 33.2622C38.3973 29.6167 40.0927 24.9803 40.082 20.1898C40.082 9.0854 31.082 0.0693359 20.082 0.0693359Z" fill="#7C7C7C"/>
</svg>
