<svg width="41" height="40" viewBox="0 0 41 40" fill="none" xmlns="http://www.w3.org/2000/svg">
<g clip-path="url(#clip0_406480_3571)">
<path d="M16.2539 20C16.2539 22.1143 17.9678 23.8281 20.082 23.8281C22.1963 23.8281 23.9102 22.1143 23.9102 20C23.9102 17.8857 22.1963 16.1719 20.082 16.1719C17.9678 16.1719 16.2539 17.8857 16.2539 20Z" fill="#7C7C7C"/>
<path d="M11.1292 13.2269C11.3132 12.7282 11.6068 12.2769 11.9882 11.9064C12.3587 11.5249 12.8098 11.2313 13.3087 11.0473C13.7134 10.8901 14.3213 10.7031 15.441 10.6521C16.6522 10.5969 17.0154 10.585 20.0818 10.585C23.1485 10.585 23.5117 10.5966 24.7226 10.6518C25.8423 10.7031 26.4505 10.8901 26.8549 11.0473C27.3538 11.2313 27.8052 11.5249 28.1754 11.9064C28.5568 12.2769 28.8504 12.7279 29.0347 13.2269C29.1919 13.6315 29.379 14.2397 29.4299 15.3594C29.4852 16.5704 29.4971 16.9335 29.4971 20.0002C29.4971 23.0667 29.4852 23.4298 29.4299 24.6411C29.379 25.7607 29.1919 26.3687 29.0347 26.7733C28.8504 27.2723 28.5571 27.7233 28.1757 28.0938C27.8052 28.4753 27.3541 28.7689 26.8552 28.9529C26.4505 29.1104 25.8423 29.2974 24.7226 29.3484C23.5117 29.4036 23.1488 29.4152 20.0821 29.4152C17.0151 29.4152 16.6519 29.4036 15.4413 29.3484C14.3216 29.2974 13.7134 29.1104 13.3087 28.9529C12.3071 28.5665 11.5155 27.7749 11.1292 26.7733C10.972 26.3687 10.7849 25.7607 10.7336 24.6411C10.6784 23.4298 10.6668 23.0667 10.6668 20.0002C10.6668 16.9335 10.6784 16.5704 10.7336 15.3594C10.7846 14.2397 10.9717 13.6315 11.1292 13.2269ZM20.0818 25.8972C23.3389 25.8972 25.9793 23.2571 25.9793 19.9999C25.9793 16.7428 23.3389 14.1027 20.0818 14.1027C16.825 14.1027 14.1846 16.7428 14.1846 19.9999C14.1846 23.2571 16.825 25.8972 20.0818 25.8972ZM13.9514 15.2477C14.7125 15.2477 15.3296 14.6307 15.3296 13.8696C15.3296 13.1085 14.7125 12.4914 13.9514 12.4914C13.1903 12.4914 12.5732 13.1085 12.5732 13.8696C12.5736 14.6307 13.1903 15.2477 13.9514 15.2477Z" fill="#7C7C7C"/>
<path d="M20.082 0C31.126 0 40.082 8.95599 40.082 20C40.082 31.044 31.126 40 20.082 40C9.03802 40 0.0820312 31.044 0.0820312 20C0.0820312 8.95599 9.03802 0 20.082 0ZM8.66693 24.7348C8.72247 25.9573 8.91687 26.792 9.20068 27.5226C9.7973 29.0652 11.0168 30.2847 12.5594 30.8813C13.2897 31.1652 14.1247 31.3593 15.3469 31.4151C16.5716 31.4709 16.9628 31.4844 20.0817 31.4844C23.2009 31.4844 23.5919 31.4709 24.8168 31.4151C26.0391 31.3593 26.874 31.1652 27.6043 30.8813C28.3709 30.593 29.0649 30.141 29.6386 29.5566C30.2227 28.9832 30.6747 28.2889 30.9631 27.5226C31.2469 26.7923 31.4413 25.9573 31.4968 24.7351C31.5533 23.5101 31.5664 23.1189 31.5664 20C31.5664 16.8811 31.5533 16.4899 31.4971 15.2652C31.4416 14.0427 31.2475 13.208 30.9637 12.4774C30.6753 11.7111 30.223 11.0168 29.6386 10.4434C29.0652 9.85901 28.3709 9.40704 27.6046 9.11865C26.874 8.83484 26.0394 8.64075 24.8168 8.5849C23.5922 8.52905 23.2009 8.51562 20.082 8.51562C16.9631 8.51562 16.5719 8.52905 15.3472 8.58521C14.1247 8.64075 13.29 8.83484 12.5594 9.11835C11.7932 9.40674 11.0989 9.85901 10.5251 10.4434C9.94104 11.0172 9.48877 11.7111 9.20068 12.4774C8.91656 13.208 8.72247 14.0427 8.66663 15.2652C8.61078 16.4899 8.59766 16.8811 8.59766 20C8.59766 23.1189 8.61078 23.5101 8.66693 24.7348Z" fill="#7C7C7C"/>
</g>
<defs>
<clipPath id="clip0_406480_3571">
<rect width="40" height="40" fill="white" transform="matrix(-1 0 0 1 40.082 0)"/>
</clipPath>
</defs>
</svg>
